0
SECTION
2
HEADER
9
$INSUNITS
70
4
9
$ACADVER
1
AC1014
9
$HANDSEED
5
FFFF
0
ENDSEC
0
SECTION
2
TABLES
0
TABLE
2
VPORT
5
8
100
AcDbSymbolTable
0
ENDTAB
0
TABLE
2
LTYPE
5
5
100
AcDbSymbolTable
0
LTYPE
5
14
100
AcDbSymbolTableRecord
100
AcDbLinetypeTableRecord
2
BYBLOCK
70
0
0
LTYPE
5
15
100
AcDbSymbolTableRecord
100
AcDbLinetypeTableRecord
2
BYLAYER
70
0
0
ENDTAB
0
TABLE
2
LAYER
5
2
100
AcDbSymbolTable
70
2
0
LAYER
5
50
100
AcDbSymbolTableRecord
100
AcDbLayerTableRecord
2
0
70
0
6
CONTINUOUS
0
ENDTAB
0
TABLE
2
STYLE
5
3
100
AcDbSymbolTable
70
1
0
STYLE
5
11
100
AcDbSymbolTableRecord
100
AcDbTextStyleTableRecord
2
STANDARD
70
0
0
ENDTAB
0
TABLE
2
VIEW
5
6
100
AcDbSymbolTable
70
0
0
ENDTAB
0
TABLE
2
UCS
5
7
100
AcDbSymbolTable
70
0
0
ENDTAB
0
TABLE
2
APPID
5
9
100
AcDbSymbolTable
70
2
0
APPID
5
12
100
AcDbSymbolTableRecord
100
AcDbRegAppTableRecord
2
ACAD
70
0
0
ENDTAB
0
TABLE
2
DIMSTYLE
5
A
100
AcDbSymbolTable
70
1
0
ENDTAB
0
TABLE
2
BLOCK_RECORD
5
1
100
AcDbSymbolTable
70
1
0
BLOCK_RECORD
5
1F
100
AcDbSymbolTableRecord
100
AcDbBlockTableRecord
2
*MODEL_SPACE
0
BLOCK_RECORD
5
1B
100
AcDbSymbolTableRecord
100
AcDbBlockTableRecord
2
*PAPER_SPACE
0
ENDTAB
0
ENDSEC
0
SECTION
2
BLOCKS
0
BLOCK
5
20
100
AcDbEntity
100
AcDbBlockBegin
2
*MODEL_SPACE
0
ENDBLK
5
21
100
AcDbEntity
100
AcDbBlockEnd
0
BLOCK
5
1C
100
AcDbEntity
100
AcDbBlockBegin
2
*PAPER_SPACE
0
ENDBLK
5
1D
100
AcDbEntity
100
AcDbBlockEnd
0
ENDSEC
0
SECTION
2
ENTITIES
0
LINE
5
100
100
AcDbEntity
8
0
100
AcDbLine
10
53.051357999999993
20
-34
30
0
11
-53.051357999999993
21
-34
31
0
0
LINE
5
101
100
AcDbEntity
8
0
100
AcDbLine
10
-53.051357999999993
20
-34
30
0
11
-53.051357999999993
21
0
31
0
0
LINE
5
102
100
AcDbEntity
8
0
100
AcDbLine
10
-53.051357999999993
20
0
30
0
11
53.051357999999993
21
0
31
0
0
LINE
5
103
100
AcDbEntity
8
0
100
AcDbLine
10
53.051357999999993
20
0
30
0
11
53.051357999999993
21
-34
31
0
0
LINE
5
104
100
AcDbEntity
8
0
100
AcDbLine
10
53.051357999999993
20
-34
30
0
11
-53.051357999999993
21
0
31
0
0
LINE
5
105
100
AcDbEntity
8
0
100
AcDbLine
10
-53.051357999999993
20
-34
30
0
11
53.051357999999993
21
0
31
0
0
LINE
5
106
100
AcDbEntity
8
0
100
AcDbLine
10
28.000620558467038
20
-34.000000000000007
30
0
11
18.000620558467038
21
-44
31
0
0
LINE
5
107
100
AcDbEntity
8
0
100
AcDbLine
10
18.000620558467038
20
-44
30
0
11
-18.00062055846703
21
-44
31
0
0
LINE
5
108
100
AcDbEntity
8
0
100
AcDbLine
10
-18.00062055846703
20
-44
30
0
11
-28.000620558467038
21
-34.000000000000007
31
0
0
LINE
5
109
100
AcDbEntity
8
0
100
AcDbLine
10
0
20
1.75
30
0
11
0
21
22.5
31
0
0
LINE
5
110
100
AcDbEntity
8
0
100
AcDbLine
10
30.0014
20
-76.705060000000017
30
0
11
30
21
0
31
0
0
LWPOLYLINE
5
111
100
AcDbEntity
8
0
100
AcDbPolyline
90
4
70
1
43
0.0
10
-51.051357999999993
20
-32
10
51.051357999999993
20
-32
10
51.051357999999993
20
-2
10
-51.051357999999993
20
-2.0000000000000018
0
LINE
5
112
100
AcDbEntity
8
0
100
AcDbLine
10
27.172193433720849
20
-32
30
0
11
17.172193433720846
21
-42
31
0
0
LINE
5
113
100
AcDbEntity
8
0
100
AcDbLine
10
17.172193433720846
20
-42
30
0
11
-17.172193433720857
21
-42
31
0
0
LINE
5
114
100
AcDbEntity
8
0
100
AcDbLine
10
-17.172193433720857
20
-42
30
0
11
-27.172193433720864
21
-32
31
0
0
LINE
5
115
100
AcDbEntity
8
0
100
AcDbLine
10
27.172193433720849
20
-32
30
0
11
27.172193433720849
21
-2.0000000000000004
31
0
0
LINE
5
116
100
AcDbEntity
8
0
100
AcDbLine
10
-27.172193433720864
20
-32
30
0
11
-27.172193433720864
21
-2.0000000000000013
31
0
0
CIRCLE
5
117
100
AcDbEntity
8
0
100
AcDbCircle
10
-50.444958
20
-31.888310000000004
30
0
40
0.40640000000000004
210
0
220
-0
230
1
0
CIRCLE
5
118
100
AcDbEntity
8
0
100
AcDbCircle
10
-50.444958
20
-29.348309999999998
30
0
40
0.40640000000000004
210
0
220
-0
230
1
0
CIRCLE
5
119
100
AcDbEntity
8
0
100
AcDbCircle
10
-50.444958
20
-26.808310000000013
30
0
40
0.40640000000000004
210
0
220
-0
230
1
0
CIRCLE
5
120
100
AcDbEntity
8
0
100
AcDbCircle
10
-50.444958
20
-24.26831
30
0
40
0.40640000000000004
210
0
220
-0
230
1
0
CIRCLE
5
121
100
AcDbEntity
8
0
100
AcDbCircle
10
-50.444958
20
-21.728310000000004
30
0
40
0.40640000000000004
210
0
220
-0
230
1
0
CIRCLE
5
122
100
AcDbEntity
8
0
100
AcDbCircle
10
-50.444958
20
-19.188310000000008
30
0
40
0.40640000000000004
210
0
220
-0
230
1
0
CIRCLE
5
123
100
AcDbEntity
8
0
100
AcDbCircle
10
-50.444958
20
-16.648310000000002
30
0
40
0.40640000000000004
210
0
220
-0
230
1
0
CIRCLE
5
124
100
AcDbEntity
8
0
100
AcDbCircle
10
-50.444958
20
-14.108310000000008
30
0
40
0.40640000000000004
210
0
220
-0
230
1
0
CIRCLE
5
125
100
AcDbEntity
8
0
100
AcDbCircle
10
-50.444958
20
-11.568310000000004
30
0
40
0.40640000000000004
210
0
220
-0
230
1
0
CIRCLE
5
126
100
AcDbEntity
8
0
100
AcDbCircle
10
-50.444958
20
-9.0283099999999994
30
0
40
0.40640000000000004
210
0
220
-0
230
1
0
CIRCLE
5
127
100
AcDbEntity
8
0
100
AcDbCircle
10
-50.444958
20
-6.4883100000000038
30
0
40
0.40640000000000004
210
0
220
-0
230
1
0
CIRCLE
5
128
100
AcDbEntity
8
0
100
AcDbCircle
10
-50.444958
20
-3.9483099999999993
30
0
40
0.40640000000000004
210
0
220
-0
230
1
0
CIRCLE
5
129
100
AcDbEntity
8
0
100
AcDbCircle
10
-35.204957999999991
20
-31.888310000000004
30
0
40
0.40640000000000004
210
0
220
-0
230
1
0
CIRCLE
5
130
100
AcDbEntity
8
0
100
AcDbCircle
10
-35.204957999999991
20
-29.348309999999998
30
0
40
0.40640000000000004
210
0
220
-0
230
1
0
CIRCLE
5
131
100
AcDbEntity
8
0
100
AcDbCircle
10
-35.204957999999991
20
-26.808310000000013
30
0
40
0.40640000000000004
210
0
220
-0
230
1
0
CIRCLE
5
132
100
AcDbEntity
8
0
100
AcDbCircle
10
-35.204957999999991
20
-24.26831
30
0
40
0.40640000000000004
210
0
220
-0
230
1
0
CIRCLE
5
133
100
AcDbEntity
8
0
100
AcDbCircle
10
-35.204957999999991
20
-21.728310000000004
30
0
40
0.40640000000000004
210
0
220
-0
230
1
0
CIRCLE
5
134
100
AcDbEntity
8
0
100
AcDbCircle
10
-35.204957999999991
20
-19.188310000000008
30
0
40
0.40640000000000004
210
0
220
-0
230
1
0
CIRCLE
5
135
100
AcDbEntity
8
0
100
AcDbCircle
10
-35.204957999999991
20
-16.648310000000002
30
0
40
0.40640000000000004
210
0
220
-0
230
1
0
CIRCLE
5
136
100
AcDbEntity
8
0
100
AcDbCircle
10
-35.204957999999991
20
-14.108310000000008
30
0
40
0.40640000000000004
210
0
220
-0
230
1
0
CIRCLE
5
137
100
AcDbEntity
8
0
100
AcDbCircle
10
-35.204957999999991
20
-11.568310000000004
30
0
40
0.40640000000000004
210
0
220
-0
230
1
0
CIRCLE
5
138
100
AcDbEntity
8
0
100
AcDbCircle
10
-35.204957999999991
20
-9.0283099999999994
30
0
40
0.40640000000000004
210
0
220
-0
230
1
0
CIRCLE
5
139
100
AcDbEntity
8
0
100
AcDbCircle
10
-35.204957999999991
20
-6.4883100000000038
30
0
40
0.40640000000000004
210
0
220
-0
230
1
0
CIRCLE
5
140
100
AcDbEntity
8
0
100
AcDbCircle
10
-35.204957999999991
20
-3.9483099999999993
30
0
40
0.40640000000000004
210
0
220
-0
230
1
0
CIRCLE
5
141
100
AcDbEntity
8
0
100
AcDbCircle
10
33.906143000000014
20
-30.692565000000009
30
0
40
0.40640000000000004
210
0
220
-0
230
1
0
CIRCLE
5
142
100
AcDbEntity
8
0
100
AcDbCircle
10
33.906143000000014
20
-28.152565000000003
30
0
40
0.40640000000000004
210
0
220
-0
230
1
0
CIRCLE
5
143
100
AcDbEntity
8
0
100
AcDbCircle
10
33.906143000000014
20
-25.612565000000007
30
0
40
0.40640000000000004
210
0
220
-0
230
1
0
CIRCLE
5
144
100
AcDbEntity
8
0
100
AcDbCircle
10
33.906143000000014
20
-23.072565000000004
30
0
40
0.40640000000000004
210
0
220
-0
230
1
0
CIRCLE
5
145
100
AcDbEntity
8
0
100
AcDbCircle
10
33.906143000000014
20
-20.532564999999998
30
0
40
0.40640000000000004
210
0
220
-0
230
1
0
CIRCLE
5
146
100
AcDbEntity
8
0
100
AcDbCircle
10
33.906143000000014
20
-17.992565000000003
30
0
40
0.40640000000000004
210
0
220
-0
230
1
0
CIRCLE
5
147
100
AcDbEntity
8
0
100
AcDbCircle
10
33.906143000000014
20
-15.452565000000007
30
0
40
0.40640000000000004
210
0
220
-0
230
1
0
CIRCLE
5
148
100
AcDbEntity
8
0
100
AcDbCircle
10
33.906143000000014
20
-12.912565000000003
30
0
40
0.40640000000000004
210
0
220
-0
230
1
0
CIRCLE
5
149
100
AcDbEntity
8
0
100
AcDbCircle
10
33.906143000000014
20
-10.372565000000007
30
0
40
0.40640000000000004
210
0
220
-0
230
1
0
CIRCLE
5
150
100
AcDbEntity
8
0
100
AcDbCircle
10
33.906143000000014
20
-7.8325650000000024
30
0
40
0.40640000000000004
210
0
220
-0
230
1
0
CIRCLE
5
151
100
AcDbEntity
8
0
100
AcDbCircle
10
33.906143000000014
20
-5.2925650000000068
30
0
40
0.40640000000000004
210
0
220
-0
230
1
0
CIRCLE
5
152
100
AcDbEntity
8
0
100
AcDbCircle
10
33.906143000000014
20
-2.7525650000000024
30
0
40
0.40640000000000004
210
0
220
-0
230
1
0
CIRCLE
5
153
100
AcDbEntity
8
0
100
AcDbCircle
10
49.146143000000002
20
-2.7525650000000024
30
0
40
0.40640000000000004
210
0
220
-0
230
1
0
CIRCLE
5
154
100
AcDbEntity
8
0
100
AcDbCircle
10
49.146143000000002
20
-5.2925650000000068
30
0
40
0.40640000000000004
210
0
220
-0
230
1
0
CIRCLE
5
155
100
AcDbEntity
8
0
100
AcDbCircle
10
49.146143000000002
20
-7.8325650000000024
30
0
40
0.40640000000000004
210
0
220
-0
230
1
0
CIRCLE
5
156
100
AcDbEntity
8
0
100
AcDbCircle
10
49.146143000000002
20
-10.372565000000007
30
0
40
0.40640000000000004
210
0
220
-0
230
1
0
CIRCLE
5
157
100
AcDbEntity
8
0
100
AcDbCircle
10
49.146143000000002
20
-12.912565000000003
30
0
40
0.40640000000000004
210
0
220
-0
230
1
0
CIRCLE
5
158
100
AcDbEntity
8
0
100
AcDbCircle
10
49.146143000000002
20
-15.452565000000007
30
0
40
0.40640000000000004
210
0
220
-0
230
1
0
CIRCLE
5
159
100
AcDbEntity
8
0
100
AcDbCircle
10
49.146143000000002
20
-17.992565000000003
30
0
40
0.40640000000000004
210
0
220
-0
230
1
0
CIRCLE
5
160
100
AcDbEntity
8
0
100
AcDbCircle
10
49.146143000000002
20
-20.532564999999998
30
0
40
0.40640000000000004
210
0
220
-0
230
1
0
CIRCLE
5
161
100
AcDbEntity
8
0
100
AcDbCircle
10
49.146143000000002
20
-23.072565000000004
30
0
40
0.40640000000000004
210
0
220
-0
230
1
0
CIRCLE
5
162
100
AcDbEntity
8
0
100
AcDbCircle
10
49.146143000000002
20
-25.612565000000007
30
0
40
0.40640000000000004
210
0
220
-0
230
1
0
CIRCLE
5
163
100
AcDbEntity
8
0
100
AcDbCircle
10
49.146143000000002
20
-28.152565000000003
30
0
40
0.40640000000000004
210
0
220
-0
230
1
0
CIRCLE
5
164
100
AcDbEntity
8
0
100
AcDbCircle
10
49.146143000000002
20
-30.692565000000009
30
0
40
0.40640000000000004
210
0
220
-0
230
1
0
LINE
5
165
100
AcDbEntity
8
0
100
AcDbLine
10
-4.4408920985006262e-15
20
-42
30
0
11
0
21
-34
31
0
0
ENDSEC
0
SECTION
2
OBJECTS
0
DICTIONARY
5
C
100
AcDbDictionary
3
ACAD_GROUP
350
D
3
ACAD_MLINESTYLE
350
17
0
DICTIONARY
5
D
100
AcDbDictionary
0
DICTIONARY
5
1A
330
C
100
AcDbDictionary
0
DICTIONARY
5
17
100
AcDbDictionary
0
ENDSEC
0
EOF
